<?xml version="1.0" encoding="utf-8"?>
<!-- Generator: Adobe Illustrator 27.2.0, SVG Export Plug-In . SVG Version: 6.00 Build 0)  -->
<svg version="1.1" id="Layer_1" xmlns="http://www.w3.org/2000/svg" xmlns:xlink="http://www.w3.org/1999/xlink" x="0px" y="0px"
	 viewBox="0 0 3045.3 593.3" style="fill:white; enable-background:new 0 0 3045.3 593.3;" xml:space="preserve">
<style type="text/css">
	.st0{fill:url(#SVGID_1_);}
	.st1{fill:url(#SVGID_00000037693782087368736430000014680080578411551396_);}
</style>
<path d="M348.5,323.2c-43.3,65.1-117.3,108.1-201.4,108.1c-6,0-11.9-0.3-17.8-0.7C107.8,463.5,94,500,78.7,534.4
	C229.5,614.9,424.3,530,438.9,325C405.4,322.3,375.4,321.9,348.5,323.2z"/>
<radialGradient id="SVGID_1_" cx="238.8836" cy="377.243" r="86.4025" fx="191.4891" fy="378.2485" gradientTransform="matrix(-0.4226 -0.9063 2.3873 -1.1132 -560.7418 1013.6935)" gradientUnits="userSpaceOnUse">
	<stop  offset="0.1155" style="stop-color:#ECECEC"/>
	<stop  offset="0.1694" style="stop-color:#E1E1E1"/>
	<stop  offset="0.2654" style="stop-color:#C2C2C2"/>
	<stop  offset="0.3924" style="stop-color:#777777"/>
	<stop  offset="0.5455" style="stop-color:#AAAAAA"/>
	<stop  offset="0.6987" style="stop-color:#FFFFFF"/>
</radialGradient>
<path class="st0" d="M348.5,323.2c-124.3,6.2-182.7,51.5-219.2,107.4c5.9,0.4,11.8,0.7,17.8,0.7
	C231.2,431.3,305.2,388.3,348.5,323.2z"/>
<path d="M359.1,277.9c24.2,0.8,50.9,0.1,80.3-2.2c-4.2-59.2-23.5-108.3-52.3-146.4c1.4,10.4,2.2,21,2.2,31.9
	C389.2,203.5,378.2,243.3,359.1,277.9z"/>
<radialGradient id="SVGID_00000036966691960267016480000000157738823691472538_" cx="234.1512" cy="157.0556" r="205.6676" fx="28.9444" fy="170.8157" gradientTransform="matrix(-0.8331 -0.5531 0.4978 -0.7498 351.036 404.3299)" gradientUnits="userSpaceOnUse">
	<stop  offset="0.1698" style="stop-color:#ECECEC"/>
	<stop  offset="0.2146" style="stop-color:#D6D6D6"/>
	<stop  offset="0.3543" style="stop-color:#969696"/>
	<stop  offset="0.4875" style="stop-color:#999999"/>
	<stop  offset="0.6108" style="stop-color:#BBBBBB"/>
	<stop  offset="0.722" style="stop-color:#DDDDDD"/>
	<stop  offset="0.8171" style="stop-color:#FFFFFF"/>
	<stop  offset="0.8851" style="stop-color:#FFFFFF"/>
</radialGradient>
<path style="fill:url(#SVGID_00000036966691960267016480000000157738823691472538_);" d="M79.1,66.3c41.9,94.4,73.3,205.1,280,211.6
	c19.1-34.6,30.1-74.4,30.1-116.7c0-10.8-0.8-21.4-2.2-31.9C315.9,35.5,186.4,9,79.1,66.3z"/>
<g>
	<g>
		<g>
			<path d="M571.2,90.9H875v68.8H650.2v100.4h149.7V329H650.2v112.4H882v68.8H571.2V90.9z"/>
			<path d="M875.1,212.2h80.8l70.7,207.8l65.7-207.8h78.3L1062,510.3h-72.6L875.1,212.2z"/>
			<path d="M1173.2,361.9c0-90.9,63.2-155.4,153.5-155.4c89.7,0,152.8,64.4,152.8,155.4c0,89.7-64.4,154.1-154.7,154.1
				C1235.1,516,1173.2,452.8,1173.2,361.9z M1399.9,363.8v-2.5c0-56.8-27.8-90.9-73.3-90.9c-46.1,0-73.9,34.1-73.9,91v2.5
				c0,55.6,27.2,88.4,72.6,88.4C1371.5,452.2,1399.9,419.4,1399.9,363.8z"/>
			<path d="M1530,85.2h78.9v425.1H1530V85.2z"/>
			<path d="M1669,390.9V212.2h78.3v174.3c0,39.8,18.9,63.2,54.3,63.2c41.1,0,58.1-34.7,58.1-85.9V212.2h78.3v298.1h-78.3V468
				c-15.8,31-42.9,48-81.5,48C1710.7,516,1669,468,1669,390.9z"/>
			<path d="M2024.6,431.4v-156h-42.3v-63.2h42.3V156L2101,113v99.2h58.7v63.2h-59.4v148.4c0,14.5,6.9,20.8,21.5,21.5h34.7v65.1H2096
				C2038.5,507.2,2025.9,480.6,2024.6,431.4z"/>
			<path d="M2210.3,92.2h81.5v76.4h-81.5V92.2z M2211.6,212.2h78.9v298.1h-78.9V212.2z"/>
			<path d="M2341,361.9c0-90.9,63.2-155.4,153.5-155.4c89.7,0,152.9,64.4,152.9,155.4c0,89.7-64.4,154.1-154.7,154.1
				C2402.9,516,2341,452.8,2341,361.9z M2567.8,363.8v-2.5c0-56.8-27.8-90.9-73.3-90.9c-46.1,0-73.9,34.1-73.9,91v2.5
				c0,55.6,27.2,88.4,72.6,88.4C2539.4,452.2,2567.8,419.4,2567.8,363.8z"/>
			<path d="M2697.3,212.2h78.3v48.6c15.8-34.7,44.9-54.9,87.2-54.9c65.1,0,103.6,43.6,103.6,125.7v178.7H2888V336
				c0-41.7-15.8-63.2-52.4-63.2c-37.3,0-60,30.3-60,85.9v151.6h-78.3L2697.3,212.2L2697.3,212.2z"/>
		</g>
	</g>
</g>
</svg>
